<svg width="32" height="32" viewBox="0 0 32 32" fill="none" xmlns="http://www.w3.org/2000/svg">
<path d="M7.55935 13.219L11.6422 7.69494C14.2813 4.1242 15.6009 2.33884 16.8321 2.71612C18.0632 3.09341 18.0632 5.28316 18.0632 9.66266V10.0756C18.0632 11.6552 18.0632 12.445 18.5679 12.9404L18.5946 12.9661C19.1103 13.451 19.9323 13.451 21.5763 13.451C24.5348 13.451 26.0141 13.451 26.514 14.3482C26.5223 14.3631 26.5303 14.3781 26.5381 14.3932C27.0101 15.3043 26.1536 16.4631 24.4406 18.7807L20.3577 24.3047C17.7185 27.8755 16.3989 29.6608 15.1678 29.2835C13.9366 28.9062 13.9366 26.7165 13.9367 22.3369L13.9367 21.9242C13.9367 20.3446 13.9368 19.5547 13.432 19.0593L13.4053 19.0337C12.8897 18.5487 12.0677 18.5487 10.4237 18.5487C7.46516 18.5487 5.98591 18.5487 5.48598 17.6515C5.4777 17.6366 5.46965 17.6216 5.46184 17.6066C4.9899 16.6954 5.84638 15.5366 7.55935 13.219Z" stroke="#1C1C1E" stroke-width="1.2"/>
</svg>
