<svg width="32" height="32" viewBox="0 0 32 32" fill="none" xmlns="http://www.w3.org/2000/svg">
<path d="M13.5327 11.7362L13.1792 12.2211V12.2211L13.5327 11.7362ZM15.9997 4.1415L15.5936 4.58324C15.8232 4.79425 16.1761 4.79425 16.4057 4.58324L15.9997 4.1415ZM18.4667 11.7362L18.8201 12.2211V12.2211L18.4667 11.7362ZM15.9997 12.9013L15.9997 13.5013H15.9997L15.9997 12.9013ZM13.5327 11.7362L13.8861 11.2514C12.9542 10.5721 11.9453 9.7356 11.1752 8.84294C10.3907 7.93355 9.93301 7.05639 9.93301 6.28631H9.33301H8.73301C8.73301 7.49636 9.42589 8.65221 10.2666 9.62678C11.1218 10.6181 12.2127 11.5165 13.1792 12.2211L13.5327 11.7362ZM9.33301 6.28631H9.93301C9.93301 4.72549 10.7157 3.75221 11.7328 3.40994C12.7711 3.06052 14.2156 3.31656 15.5936 4.58324L15.9997 4.1415L16.4057 3.69976C14.7839 2.20899 12.8951 1.75266 11.35 2.27261C9.7837 2.79972 8.73301 4.27757 8.73301 6.28631H9.33301ZM18.4667 11.7362L18.8201 12.2211C19.7867 11.5165 20.8776 10.6181 21.7327 9.62679C22.5735 8.65222 23.2663 7.49636 23.2663 6.28629H22.6663H22.0663C22.0663 7.0564 21.6086 7.93357 20.8241 8.84296C20.054 9.73562 19.0451 10.5721 18.1133 11.2514L18.4667 11.7362ZM22.6663 6.28629H23.2663C23.2663 4.27756 22.2156 2.79972 20.6493 2.27261C19.1043 1.75266 17.2155 2.20899 15.5936 3.69976L15.9997 4.1415L16.4057 4.58324C17.7838 3.31656 19.2283 3.06052 20.2666 3.40994C21.2836 3.7522 22.0663 4.72548 22.0663 6.28629H22.6663ZM13.5327 11.7362L13.1792 12.2211C14.2095 12.9721 14.9016 13.5013 15.9997 13.5013L15.9997 12.9013L15.9997 12.3013C15.3602 12.3013 14.9868 12.0537 13.8861 11.2514L13.5327 11.7362ZM18.4667 11.7362L18.1133 11.2514C17.0126 12.0537 16.6392 12.3013 15.9997 12.3013L15.9997 12.9013L15.9997 13.5013C17.0977 13.5013 17.7899 12.9721 18.8201 12.2211L18.4667 11.7362Z" fill="white"/>
<path d="M6.66699 27.1845H9.68024C11.0281 27.1845 12.3904 27.3249 13.7021 27.5951C16.0224 28.0732 18.4655 28.1311 20.8096 27.7516C21.9654 27.5645 23.1017 27.2785 24.1303 26.782C25.0588 26.3338 26.1962 25.7021 26.9602 24.9945C27.7231 24.2879 28.5176 23.1315 29.0816 22.2276C29.5651 21.4525 29.3312 20.5015 28.5664 19.924C27.7167 19.2825 26.4559 19.2826 25.6065 19.9243L23.1969 21.7445C22.263 22.45 21.243 23.0993 20.0278 23.2932C19.8817 23.3165 19.7286 23.3377 19.5688 23.3562M17.0027 23.3768C17.9085 23.4623 18.7249 23.4438 19.4227 23.3722C19.472 23.3671 19.5207 23.3618 19.5688 23.3562M19.5688 23.3562C19.7632 23.3146 19.9562 23.1947 20.1373 23.0366C20.9949 22.2881 21.0492 21.0266 20.3051 20.1908C20.1324 19.9969 19.9304 19.8351 19.7057 19.7012C15.976 17.4766 10.1729 19.1709 6.66699 21.6572M19.5688 23.3562C19.5201 23.3666 19.4714 23.3722 19.4227 23.3722" stroke="white" stroke-width="1.2" stroke-linecap="round"/>
<rect x="2.66699" y="18.6666" width="4" height="10.6667" rx="1.5" stroke="white" stroke-width="1.2"/>
</svg>
