<svg width="28" height="28" viewBox="0 0 28 28" fill="none" xmlns="http://www.w3.org/2000/svg">
<foreignObject x="-7.66699" y="-7.66669" width="43.333" height="43.3333"><div xmlns="http://www.w3.org/1999/xhtml" style="backdrop-filter:blur(5px);clip-path:url(#bgblur_0_478_5016_clip_path);height:100%;width:100%"></div></foreignObject><path data-figma-bg-blur-radius="10" d="M13.9997 2.33331C7.55967 2.33331 2.33301 7.55998 2.33301 14C2.33301 20.44 7.55967 25.6666 13.9997 25.6666C20.4397 25.6666 25.6663 20.44 25.6663 14C25.6663 7.55998 20.4397 2.33331 13.9997 2.33331ZM17.103 16.0183L15.6097 16.8816L14.1163 17.745C12.1913 18.8533 10.6163 17.9433 10.6163 15.7266V14V12.2733C10.6163 10.045 12.1913 9.14665 14.1163 10.255L15.6097 11.1183L17.103 11.9816C19.028 13.09 19.028 14.91 17.103 16.0183Z" fill="white"/>
<defs>
<clipPath id="bgblur_0_478_5016_clip_path" transform="translate(7.66699 7.66669)"><path d="M13.9997 2.33331C7.55967 2.33331 2.33301 7.55998 2.33301 14C2.33301 20.44 7.55967 25.6666 13.9997 25.6666C20.4397 25.6666 25.6663 20.44 25.6663 14C25.6663 7.55998 20.4397 2.33331 13.9997 2.33331ZM17.103 16.0183L15.6097 16.8816L14.1163 17.745C12.1913 18.8533 10.6163 17.9433 10.6163 15.7266V14V12.2733C10.6163 10.045 12.1913 9.14665 14.1163 10.255L15.6097 11.1183L17.103 11.9816C19.028 13.09 19.028 14.91 17.103 16.0183Z"/>
</clipPath></defs>
</svg>
